<svg width="119" height="16" viewBox="0 0 119 16" fill="none" xmlns="http://www.w3.org/2000/svg">
<path d="M5.94131 15.1722C4.9593 15.1722 4.06657 14.949 3.26311 14.5026C2.4724 14.0563 1.84749 13.425 1.38837 12.6088C0.942002 11.7798 0.718819 10.8233 0.718819 9.73925C0.718819 8.66797 0.948379 7.72422 1.4075 6.90801C1.87937 6.07904 2.51704 5.44775 3.3205 5.01414C4.12396 4.56777 5.02307 4.34459 6.01783 4.34459C7.01259 4.34459 7.9117 4.56777 8.71516 5.01414C9.51862 5.44775 10.1499 6.07267 10.609 6.88888C11.0809 7.70509 11.3168 8.65522 11.3168 9.73925C11.3168 10.8233 11.0745 11.7798 10.5899 12.6088C10.118 13.425 9.47398 14.0563 8.65777 14.5026C7.84156 14.949 6.93607 15.1722 5.94131 15.1722ZM5.94131 13.6418C6.56622 13.6418 7.15288 13.4951 7.70127 13.2018C8.24966 12.9085 8.68965 12.4685 9.02124 11.8818C9.36558 11.2952 9.53775 10.581 9.53775 9.73925C9.53775 8.89753 9.37196 8.18334 9.04037 7.59669C8.70878 7.01004 8.27517 6.57642 7.73953 6.29585C7.20389 6.00252 6.62361 5.85586 5.9987 5.85586C5.36103 5.85586 4.77438 6.00252 4.23874 6.29585C3.71585 6.57642 3.29499 7.01004 2.97616 7.59669C2.65733 8.18334 2.49791 8.89753 2.49791 9.73925C2.49791 10.5937 2.65095 11.3143 2.95703 11.9009C3.27586 12.4876 3.69672 12.9276 4.21961 13.2209C4.7425 13.5015 5.3164 13.6418 5.94131 13.6418ZM18.7134 4.32546C19.9888 4.32546 21.0218 4.71444 21.8125 5.49239C22.6032 6.25759 22.9985 7.36713 22.9985 8.82101V15H21.2768V9.0697C21.2768 8.02393 21.0154 7.22684 20.4925 6.67845C19.9696 6.1173 19.2554 5.83673 18.35 5.83673C17.4317 5.83673 16.6984 6.12368 16.15 6.69758C15.6144 7.27148 15.3465 8.10682 15.3465 9.20361V15H13.6057V4.51676H15.3465V6.0089C15.6909 5.47326 16.1564 5.05878 16.743 4.76545C17.3424 4.47212 17.9992 4.32546 18.7134 4.32546ZM35.4072 9.35665C35.4072 9.68824 35.3881 10.039 35.3498 10.4088H26.9709C27.0346 11.4418 27.3853 12.2517 28.023 12.8383C28.6734 13.4122 29.4578 13.6992 30.376 13.6992C31.1284 13.6992 31.7534 13.527 32.2507 13.1826C32.7609 12.8256 33.118 12.3537 33.322 11.767H35.1968C34.9162 12.7745 34.355 13.5971 33.5133 14.2348C32.6716 14.8597 31.6258 15.1722 30.376 15.1722C29.3812 15.1722 28.4885 14.949 27.6978 14.5026C26.9198 14.0563 26.3077 13.425 25.8613 12.6088C25.415 11.7798 25.1918 10.8233 25.1918 9.73925C25.1918 8.65522 25.4086 7.70509 25.8422 6.88888C26.2758 6.07267 26.8816 5.44775 27.6595 5.01414C28.4502 4.56777 29.3557 4.34459 30.376 4.34459C31.3708 4.34459 32.2507 4.5614 33.0159 4.99501C33.7811 5.42862 34.3678 6.02803 34.7759 6.79323C35.1968 7.54568 35.4072 8.40015 35.4072 9.35665ZM33.609 8.99318C33.609 8.33001 33.4623 7.76248 33.169 7.29061C32.8757 6.80598 32.4739 6.44251 31.9638 6.2002C31.4664 5.94513 30.9116 5.8176 30.2995 5.8176C29.4195 5.8176 28.6671 6.09817 28.0421 6.65932C27.43 7.22047 27.0793 7.99842 26.99 8.99318H33.609ZM39.4459 6.46802C39.803 5.84311 40.3258 5.33297 41.0145 4.93762C41.7032 4.54227 42.4875 4.34459 43.3675 4.34459C44.3113 4.34459 45.1594 4.56777 45.9118 5.01414C46.6642 5.46051 47.2573 6.0918 47.6909 6.90801C48.1245 7.71147 48.3413 8.64884 48.3413 9.72012C48.3413 10.7786 48.1245 11.7224 47.6909 12.5514C47.2573 13.3803 46.6579 14.0244 45.8927 14.4835C45.1402 14.9426 44.2985 15.1722 43.3675 15.1722C42.462 15.1722 41.6649 14.9745 40.9763 14.5791C40.3003 14.1838 39.7902 13.68 39.4459 13.0679V15H37.705V0.8438H39.4459V6.46802ZM46.5622 9.72012C46.5622 8.92941 46.4028 8.24073 46.084 7.65408C45.7651 7.06743 45.3315 6.62106 44.7831 6.31498C44.2475 6.0089 43.6545 5.85586 43.004 5.85586C42.3664 5.85586 41.7733 6.01528 41.2249 6.33411C40.6893 6.64019 40.2557 7.09293 39.9241 7.69234C39.6053 8.27899 39.4459 8.9613 39.4459 9.73925C39.4459 10.53 39.6053 11.225 39.9241 11.8244C40.2557 12.4111 40.6893 12.8638 41.2249 13.1826C41.7733 13.4887 42.3664 13.6418 43.004 13.6418C43.6545 13.6418 44.2475 13.4887 44.7831 13.1826C45.3315 12.8638 45.7651 12.4111 46.084 11.8244C46.4028 11.225 46.5622 10.5236 46.5622 9.72012ZM51.5318 2.81419C51.2002 2.81419 50.9197 2.69941 50.6901 2.46985C50.4606 2.24029 50.3458 1.95972 50.3458 1.62813C50.3458 1.29654 50.4606 1.01597 50.6901 0.78641C50.9197 0.55685 51.2002 0.44207 51.5318 0.44207C51.8507 0.44207 52.1185 0.55685 52.3353 0.78641C52.5649 1.01597 52.6796 1.29654 52.6796 1.62813C52.6796 1.95972 52.5649 2.24029 52.3353 2.46985C52.1185 2.69941 51.8507 2.81419 51.5318 2.81419ZM52.3736 4.51676V15H50.6327V4.51676H52.3736ZM57.4639 5.95151V12.1305C57.4639 12.6406 57.5723 13.0041 57.7891 13.2209C58.0059 13.425 58.3822 13.527 58.9178 13.527H60.1995V15H58.6309C57.6616 15 56.9347 14.7768 56.45 14.3305C55.9654 13.8841 55.7231 13.1508 55.7231 12.1305V5.95151H54.3649V4.51676H55.7231V1.87682H57.4639V4.51676H60.1995V5.95151H57.4639Z" fill="#E4E4E4"/>
<path d="M74.9154 4.32546C75.7316 4.32546 76.4586 4.49763 77.0962 4.84197C77.7339 5.17356 78.2377 5.67731 78.6075 6.35324C78.9774 7.02917 79.1623 7.85176 79.1623 8.82101V15H77.4406V9.0697C77.4406 8.02393 77.1791 7.22684 76.6562 6.67845C76.1461 6.1173 75.4511 5.83673 74.5711 5.83673C73.6656 5.83673 72.945 6.13006 72.4094 6.71671C71.8737 7.29061 71.6059 8.12595 71.6059 9.22274V15H69.8842V9.0697C69.8842 8.02393 69.6228 7.22684 69.0999 6.67845C68.5898 6.1173 67.8947 5.83673 67.0147 5.83673C66.1092 5.83673 65.3887 6.13006 64.853 6.71671C64.3174 7.29061 64.0496 8.12595 64.0496 9.22274V15H62.3087V4.51676H64.0496V6.02803C64.3939 5.47964 64.853 5.05878 65.4269 4.76545C66.0136 4.47212 66.6576 4.32546 67.3591 4.32546C68.239 4.32546 69.017 4.52314 69.6929 4.91849C70.3689 5.31384 70.8726 5.89412 71.2042 6.65932C71.4975 5.91963 71.9822 5.34573 72.6581 4.93762C73.334 4.52951 74.0865 4.32546 74.9154 4.32546ZM91.3151 4.51676V15H89.5742V13.4505C89.2426 13.9861 88.7771 14.407 88.1777 14.7131C87.5911 15.0064 86.9407 15.153 86.2265 15.153C85.4103 15.153 84.6769 14.9872 84.0265 14.6557C83.3761 14.3113 82.8596 13.8012 82.477 13.1253C82.1071 12.4493 81.9222 11.6267 81.9222 10.6575V4.51676H83.6439V10.4279C83.6439 11.461 83.9054 12.258 84.4283 12.8192C84.9511 13.3676 85.6653 13.6418 86.5708 13.6418C87.5018 13.6418 88.2351 13.3548 88.7708 12.7809C89.3064 12.207 89.5742 11.3717 89.5742 10.2749V4.51676H91.3151ZM97.9656 15.1722C97.1621 15.1722 96.4415 15.0383 95.8039 14.7704C95.1662 14.4899 94.6625 14.1073 94.2926 13.6226C93.9228 13.1253 93.7187 12.5577 93.6805 11.9201H95.4787C95.5297 12.443 95.772 12.8702 96.2056 13.2018C96.652 13.5334 97.2323 13.6992 97.9464 13.6992C98.6096 13.6992 99.1325 13.5525 99.5151 13.2592C99.8977 12.9658 100.089 12.596 100.089 12.1496C100.089 11.6905 99.8849 11.3525 99.4768 11.1357C99.0687 10.9062 98.4374 10.683 97.583 10.4662C96.805 10.2621 96.1674 10.0581 95.67 9.85403C95.1853 9.63722 94.7645 9.32477 94.4074 8.91666C94.0631 8.4958 93.8909 7.94741 93.8909 7.27148C93.8909 6.73584 94.0503 6.24484 94.3691 5.79847C94.688 5.3521 95.1407 5.00139 95.7274 4.74632C96.314 4.4785 96.9836 4.34459 97.736 4.34459C98.8966 4.34459 99.8339 4.63792 100.548 5.22457C101.262 5.81122 101.645 6.61468 101.696 7.63495H99.9551C99.9168 7.08656 99.6936 6.64657 99.2855 6.31498C98.8902 5.98339 98.3545 5.8176 97.6786 5.8176C97.0537 5.8176 96.5563 5.95151 96.1865 6.21933C95.8166 6.48715 95.6317 6.83787 95.6317 7.27148C95.6317 7.61582 95.7401 7.90277 95.9569 8.13233C96.1865 8.34914 96.4671 8.52768 96.7986 8.66797C97.143 8.7955 97.6149 8.94217 98.2143 9.10796C98.9667 9.31201 99.5789 9.51607 100.051 9.72012C100.523 9.91142 100.924 10.2047 101.256 10.6001C101.6 10.9955 101.779 11.512 101.792 12.1496C101.792 12.7235 101.632 13.24 101.313 13.6992C100.994 14.1583 100.542 14.5217 99.9551 14.7896C99.3812 15.0446 98.718 15.1722 97.9656 15.1722ZM105.148 2.81419C104.817 2.81419 104.536 2.69941 104.306 2.46985C104.077 2.24029 103.962 1.95972 103.962 1.62813C103.962 1.29654 104.077 1.01597 104.306 0.78641C104.536 0.55685 104.817 0.44207 105.148 0.44207C105.467 0.44207 105.735 0.55685 105.952 0.78641C106.181 1.01597 106.296 1.29654 106.296 1.62813C106.296 1.95972 106.181 2.24029 105.952 2.46985C105.735 2.69941 105.467 2.81419 105.148 2.81419ZM105.99 4.51676V15H104.249V4.51676H105.99ZM108.306 9.73925C108.306 8.65522 108.523 7.71147 108.957 6.90801C109.39 6.0918 109.99 5.46051 110.755 5.01414C111.533 4.56777 112.419 4.34459 113.414 4.34459C114.702 4.34459 115.761 4.65705 116.59 5.28196C117.431 5.90687 117.986 6.7741 118.254 7.88364H116.379C116.201 7.24597 115.85 6.74222 115.327 6.37237C114.817 6.00252 114.179 5.8176 113.414 5.8176C112.419 5.8176 111.616 6.16194 111.004 6.85062C110.392 7.52655 110.085 8.48942 110.085 9.73925C110.085 11.0018 110.392 11.9775 111.004 12.6661C111.616 13.3548 112.419 13.6992 113.414 13.6992C114.179 13.6992 114.817 13.5206 115.327 13.1635C115.837 12.8064 116.188 12.2963 116.379 11.6331H118.254C117.973 12.7044 117.412 13.5652 116.571 14.2157C115.729 14.8533 114.677 15.1722 113.414 15.1722C112.419 15.1722 111.533 14.949 110.755 14.5026C109.99 14.0563 109.39 13.425 108.957 12.6088C108.523 11.7925 108.306 10.836 108.306 9.73925Z" fill="#F64348"/>
</svg>
