<svg width="20" height="20" viewBox="0 0 20 20" fill="none" xmlns="http://www.w3.org/2000/svg">
<path d="M10 20.0001C4.477 20.0001 0 15.5231 0 10.0001C0 4.47712 4.477 0.00012207 10 0.00012207C15.523 0.00012207 20 4.47712 20 10.0001C20 15.5231 15.523 20.0001 10 20.0001ZM10 18.0001C12.1217 18.0001 14.1566 17.1573 15.6569 15.657C17.1571 14.1567 18 12.1219 18 10.0001C18 7.87839 17.1571 5.84356 15.6569 4.34327C14.1566 2.84298 12.1217 2.00012 10 2.00012C7.87827 2.00012 5.84344 2.84298 4.34315 4.34327C2.84285 5.84356 2 7.87839 2 10.0001C2 12.1219 2.84285 14.1567 4.34315 15.657C5.84344 17.1573 7.87827 18.0001 10 18.0001ZM11 10.0001H15V12.0001H9V5.00012H11V10.0001Z" fill="#F9F9F9"/>
</svg>
